<svg width="32" height="32" viewBox="0 0 32 32" xmlns="http://www.w3.org/2000/svg">
<path d="M5.33325 16C5.33325 14.4518 5.33325 13.6777 5.42828 13.0289C6.00458 9.09456 9.09448 6.00466 13.0289 5.42836C13.6776 5.33333 14.4517 5.33333 15.9999 5.33333V5.33333C17.5481 5.33333 18.3222 5.33333 18.971 5.42836C22.9054 6.00466 25.9953 9.09456 26.5716 13.0289C26.6666 13.6777 26.6666 14.4518 26.6666 16V22.7879C26.6666 24.5559 26.6666 25.4399 26.1465 26.012C26.1038 26.059 26.0589 26.1039 26.0119 26.1466C25.4398 26.6667 24.5558 26.6667 22.7878 26.6667H15.9999C14.4517 26.6667 13.6776 26.6667 13.0289 26.5716C9.09448 25.9953 6.00458 22.9054 5.42828 18.9711C5.33325 18.3223 5.33325 17.5482 5.33325 16V16Z" stroke="#222222"/>
<path d="M12 14.6667L20 14.6667" stroke="#222222" stroke-linecap="round" stroke-linejoin="round"/>
<path d="M16 20H20" stroke="#222222" stroke-linecap="round" stroke-linejoin="round"/>
</svg>
